<svg aria-hidden="true" style="position: absolute; width: 0; height: 0; overflow: hidden;" version="1.1" xmlns="http://www.w3.org/2000/svg" xmlns:xlink="http://www.w3.org/1999/xlink">
<defs>
<symbol id="pull-bear" viewBox="0 0 206 32">
<path d="M92.057 26.995c-2.73 0-4.853-2.275-4.853-5.005 0-1.972 1.365-3.64 3.185-4.246l6.37 6.976c-1.213 1.365-2.881 2.275-4.701 2.275zM102.825 23.962c0-1.062 0.152-1.972 0.455-2.881 0.607-1.668 1.517-2.882 2.73-3.033h0.152v-5.005c-3.791 0-6.825 2.578-7.735 6.066l-7.886-8.645c-0.758-0.758-1.062-1.517-1.062-2.275s0.303-1.517 0.91-2.123c0.607-0.607 1.365-0.91 2.123-0.91s1.517 0.303 2.123 0.91c0.303 0.303 0.455 0.607 0.607 0.91l4.55-2.275c-0.455-0.758-0.91-1.517-1.517-2.275-1.517-1.517-3.64-2.427-5.763-2.427s-4.095 0.758-5.763 2.427c-1.517 1.517-2.427 3.64-2.427 5.763 0 1.972 0.758 4.095 2.275 5.611-2.73 1.668-4.701 4.701-4.701 8.19 0 5.46 4.398 10.009 10.009 10.009 3.185 0 6.066-1.365 8.038-3.488l2.123 2.275h7.128l-6.37-6.825zM189.27 15.318v-9.403h1.668c4.247 0 6.37 1.517 6.37 4.55 0 4.095-3.337 5.005-6.218 5.005h-1.82v-0.152zM195.033 25.782c0.759 1.668 1.669 3.337 2.73 5.005h6.673c-1.516-2.275-3.033-5.156-4.246-7.583l-2.274-4.55c1.365-0.758 2.577-1.82 3.488-3.185 0.91-1.517 1.365-3.185 1.365-5.156 0-5.915-4.399-9.403-11.526-9.403h-7.28v30.028h5.308v-10.161c0 0 1.365 0 3.185-0.303 0.607 1.213 1.516 3.185 2.577 5.308v0zM164.095 18.047h7.28l-3.641-9.1-3.639 9.1zM182.597 30.938h-6.218l-3.033-7.886h-11.072l-3.033 7.886h-5.764l12.284-30.028h4.247l12.587 30.028zM151.962 30.938h-18.502v-30.18h18.502v5.156h-13.042v7.128h12.284v5.005h-12.284v7.735h13.042v5.156zM116.626 13.043h2.123c1.972 0 4.398-0.607 4.398-3.64 0-1.517-0.455-3.64-4.702-3.64h-1.972l0.152 7.28zM116.626 25.782h2.881c5.612 0 5.612-3.033 5.612-3.943s0-3.943-5.46-3.943h-3.033v7.886zM120.569 30.938h-9.251v-30.18h5.611c3.185 0 5.763 0.152 7.583 1.365 2.73 1.517 4.095 4.095 4.095 7.28 0 2.123-0.91 3.943-2.427 5.308 2.882 1.517 4.399 3.943 4.399 7.431 0.151 4.853-4.399 8.796-10.010 8.796v0zM80.076 30.938h-14.711v-30.18h5.46v25.024h9.251v5.156zM63.242 30.938h-14.711v-30.18h5.46v25.024h9.251v5.156zM33.213 31.393c-6.976 0-11.678-4.853-11.678-12.133v-18.502h5.46v18.351c0 4.701 2.275 7.128 6.37 7.128 5.156 0 6.218-3.943 6.218-7.128v-18.351h5.46v18.502c-0.152 7.28-4.853 12.133-11.829 12.133v0zM5.308 18.199h2.123c3.791 0 5.611-3.185 5.611-6.218s-1.972-6.218-6.218-6.218h-1.517v12.436zM5.308 30.938h-5.308v-30.18h6.976c7.583 0 11.526 5.611 11.526 11.223s-4.095 11.223-10.768 11.223h-2.427v7.735z"></path>
</symbol>
<symbol id="zara-a" viewBox="0 0 38 32">
<path d="M9.129 21.242l5.456-11.977 6.092 11.977h-11.548zM32.484 29.508l-14.919-29.508-13.673 29.53c-0.241 0.648-1.553 1.498-3.425 1.498v0.966h7.278v-0.9c-1.35 0-2.794-0.768-2.448-1.57l3.288-7.13h12.613l3.584 7.113c0.412 0.719-1.411 1.526-3.282 1.526v0.966h15.149l0.006-0.933c-2.294 0-3.694-0.785-4.172-1.559v0z"></path>
</symbol>
<symbol id="zara-r" viewBox="0 0 34 32">
<path d="M0.132 1.235c2.218 0 4.051 0.571 4.051 1.262 0 5.489-0.011 26.978 0 26.978 0 0.736-1.806 1.553-4.029 1.553l-0.005 0.966h14.832v-0.9c-2.201 0-3.985-0.878-3.985-1.614v-28.515h4.276c4.117 0 7.454 3.42 7.454 7.3s-3.337 7.031-7.46 7.031h-2.959c0 0 10.024 15.177 10.040 15.177 0.395 0.576 0.593 1.526 0.593 1.526h10.808v-0.9c-2.081 0-3.167-0.862-3.771-1.619l-9.65-12.591c4.633-0.307 8.218-4.051 8.218-8.497 0-4.644-3.991-8.392-8.915-8.392h-19.498v1.235z"></path>
</symbol>
<symbol id="zara-z" viewBox="0 0 29 32">
<path d="M27.065 26.895c0 2.157-1.801 3.908-3.157 3.908h-15.333l19.286-30.803h-25.786v5.105h1.323c0-2.157 1.394-3.903 2.756-3.903h13.247l-19.401 30.798h27.977v-5.105h-0.911z"></path>
</symbol>
<symbol id="nike" viewBox="0 0 89 32">
<path d="M11.389 1.419c-5.786 6.795-11.333 15.221-11.389 21.519-0.022 2.37 0.735 4.439 2.549 6.005 2.611 2.257 5.489 3.052 8.352 3.057 4.184 0.006 8.339-1.682 11.592-2.984 5.479-2.191 66.042-28.492 66.042-28.492 0.584-0.293 0.475-0.658-0.256-0.475-0.295 0.074-65.932 17.862-65.932 17.862-1.243 0.352-2.528 0.536-3.82 0.547-5.044 0.030-9.533-2.77-9.497-8.671 0.014-2.309 0.721-5.093 2.358-8.368v-0z"></path>
</symbol>
<symbol id="logo" viewBox="0 0 149 32">
<path d="M5.866 25.946h4.846c1.658 0 2.806-0.288 3.571-1.009s1.148-1.73 1.148-2.883c0-1.297-0.383-2.306-1.275-3.171-0.765-0.865-1.913-1.297-3.316-1.297h-4.974v8.36zM5.866 13.117h4.336c1.148 0 2.168-0.288 3.061-1.009 0.765-0.721 1.148-1.73 1.148-2.883s-0.383-2.018-1.020-2.739c-0.765-0.721-1.658-1.009-3.061-1.009h-4.464v7.64zM0 31.423v-31.423h11.095c3.061 0 5.356 0.721 6.887 2.306 1.53 1.441 2.296 3.459 2.296 5.766 0 1.874-0.51 3.315-1.403 4.468s-2.168 1.874-3.571 2.306v0.288c1.020 0 2.040 0.432 2.933 1.009s1.658 1.441 2.296 2.595c0.638 1.153 0.893 2.45 0.893 4.036 0 1.73-0.383 3.171-1.148 4.468s-1.785 2.306-3.188 3.027c-1.403 0.721-3.188 1.153-5.229 1.153h-11.86z"></path>
<path d="M25.25 31.421v-31.421h18.745v5.477h-12.879v7.495h11.859v5.477h-11.859v7.495h12.879v5.477h-18.745z"></path>
<path d="M63.764 9.081c-0.127-1.297-0.637-2.162-1.403-2.883s-1.913-1.009-3.315-1.009c-1.403 0-2.55 0.288-3.315 1.009s-1.148 1.441-1.148 2.45c0 1.153 0.383 2.018 1.275 2.595s1.913 1.009 3.060 1.297l2.55 0.721c1.658 0.432 3.060 1.009 4.335 1.73s2.295 1.73 2.933 3.027c0.765 1.153 1.020 2.739 1.020 4.468 0 2.883-1.020 5.189-2.805 6.919s-4.59 2.595-7.905 2.595-6.12-0.865-8.033-2.595c-1.913-1.73-3.060-4.324-3.188-7.64h5.738c0.128 1.586 0.638 2.739 1.658 3.604s2.295 1.153 3.825 1.153 2.678-0.288 3.57-1.009c0.893-0.721 1.403-1.586 1.403-2.739 0-1.009-0.383-1.874-1.275-2.45s-2.040-1.009-3.443-1.441l-3.060-0.865c-2.295-0.577-4.208-1.586-5.61-3.027s-2.040-3.171-2.040-5.477c0-1.874 0.383-3.604 1.403-5.045 0.893-1.441 2.168-2.595 3.698-3.315s3.443-1.153 5.483-1.153c2.040 0 3.825 0.432 5.355 1.153 1.53 0.865 2.805 1.874 3.57 3.315s1.275 3.027 1.275 4.901h-5.61v-0.288z"></path>
<path d="M81.491 19.027h7.014l-3.443-11.964h-0.255l-3.316 11.964zM77.92 31.423h-6.376l9.565-31.423h7.524l9.692 31.423h-6.249l-2.040-7.207h-10.075l-2.040 7.207z"></path>
<path d="M107.635 14.991h3.953c3.316 0 4.974-1.586 4.974-4.613 0-3.171-1.658-4.901-5.101-4.901h-3.954v9.514h0.128zM101.768 31.423v-31.423h10.968c3.188 0 5.611 0.865 7.397 2.739s2.678 4.324 2.678 7.496c0 2.162-0.382 4.036-1.275 5.477-0.892 1.586-2.040 2.739-3.698 3.459l5.866 12.252h-6.504l-5.228-11.099h-4.336v11.099h-5.866z"></path>
<path d="M125.747 5.477v-5.477h22.823v5.477h-8.543v25.944h-5.864v-25.944h-8.415z"></path>
</symbol>
<symbol id="levis" viewBox="0 0 66 32">
<path d="M52.009 18.124c-3.338 0-4.579-1.469-4.579-3.247v-0.056h3.051c0 0.842 0.665 1.268 1.599 1.268 0.825 0 1.249-0.274 1.249-0.798 0-1.388-5.816-0.058-5.816-3.98 0-2.099 1.959-3.328 5.018-3.328 2.723 0 4.374 1.351 4.374 2.963h-2.793c0-0.465-0.583-0.93-1.574-0.93-1.009 0-1.401 0.357-1.401 0.671 0 1.53 6.082 0.029 6.082 4.020-0.001 1.922-1.442 3.417-5.209 3.417zM47.26 8.955l-1.262 1.525h-0.521l0.572-1.66h-1.154v-2.218h2.366l-0 2.353v-0zM43.896 17.905h-3.643v-9.731h3.643v9.731zM35.078 17.926h-2.995l-4.781-9.734h4.195l2.565 5.62h0.066l2.567-5.62h3.010l-4.628 9.734zM23.016 18.241c-3.732 0-5.709-1.928-5.709-5.147s2.058-5.142 5.502-5.142c3.674 0 5.501 2.353 5.501 5.142 0 0.22-0.016 0.431-0.046 0.591h-6.953c0 1.37 0.766 2.209 1.98 2.209 1.039 0 1.833-0.294 2.002-1.147h3.034c-0.368 2.205-1.918 3.495-5.312 3.495zM17.132 17.91h-9.147v-9.633h3.642v7.173h5.505v2.46zM0 0l6.213 29.37 0.472-0.244c6.608-3.471 13.206-3.263 17.571-2.477 4.751 0.85 7.968 2.546 8.006 2.557l0.172 0.098 0.177-0.085c7.799-3.468 14.24-3.269 18.268-2.493 4.363 0.846 6.923 2.533 6.95 2.552l0.491 0.325 0.126-0.582 6.372-29.022-64.82 0zM22.838 10.035c-1.030 0-1.393 0.964-1.393 1.92h2.78c0-1.068-0.35-1.92-1.387-1.92zM55.311 30.336h-0.323v-0.51h0.312c0.127 0 0.217 0.009 0.26 0.029 0.055 0.026 0.1 0.052 0.118 0.087 0.028 0.044 0.038 0.089 0.038 0.138 0 0.084-0.026 0.139-0.082 0.189-0.058 0.037-0.163 0.065-0.325 0.065zM55.667 30.626c-0.041-0.040-0.090-0.071-0.143-0.090 0.143-0.014 0.266-0.067 0.355-0.157 0.085-0.092 0.124-0.203 0.124-0.325 0-0.086-0.025-0.173-0.076-0.252-0.050-0.075-0.123-0.131-0.208-0.161-0.089-0.030-0.232-0.043-0.417-0.043h-0.58v1.693h0.268v-0.71h0.158c0.097-0.003 0.161 0.012 0.216 0.054 0.067 0.052 0.162 0.183 0.28 0.389l0.148 0.268h0.331l-0.201-0.329c-0.105-0.156-0.182-0.268-0.253-0.337zM56.523 31.072c-0.123 0.209-0.285 0.373-0.489 0.49-0.2 0.12-0.412 0.179-0.634 0.179-0.226 0.001-0.447-0.061-0.639-0.179-0.204-0.116-0.371-0.285-0.485-0.49-0.111-0.2-0.162-0.418-0.162-0.651 0-0.226 0.057-0.45 0.168-0.66 0.112-0.212 0.279-0.373 0.483-0.487 0.205-0.116 0.417-0.171 0.635-0.171 0.216 0 0.426 0.055 0.634 0.171 0.198 0.114 0.355 0.275 0.489 0.487 0.107 0.203 0.163 0.43 0.162 0.66-0 0.233-0.051 0.451-0.162 0.651zM56.164 29.038c-0.245-0.13-0.503-0.199-0.764-0.199-0.269 0-0.515 0.068-0.759 0.199-0.253 0.143-0.441 0.332-0.591 0.588-0.14 0.255-0.2 0.522-0.2 0.795 0 0.274 0.060 0.533 0.2 0.785 0.142 0.252 0.329 0.449 0.578 0.584 0.248 0.143 0.497 0.209 0.772 0.209 0.269 0.002 0.533-0.071 0.764-0.209 0.246-0.135 0.447-0.332 0.572-0.584 0.14-0.252 0.207-0.512 0.207-0.785 0-0.272-0.068-0.54-0.207-0.795-0.133-0.256-0.327-0.446-0.571-0.588z"></path>
</symbol>
<symbol id="bershka" viewBox="0 0 145 32">
<path d="M141.215 25.263v-6.219c-7.125 1.296-10.624 3.368-10.624 6.478 0 1.036 0.389 1.814 1.166 2.462 0.778 0.648 1.684 1.036 2.591 1.036 1.037 0 2.333-0.389 3.628-1.036 1.166-0.648 2.332-1.555 3.239-2.721zM130.85 14.51l-2.721-1.425c1.814-3.239 4.534-4.793 8.421-4.793 2.203 0 4.016 0.518 5.312 1.555 1.684 1.166 2.462 2.98 2.462 5.312v11.401c0 1.943 0.129 3.498 0.517 4.923h-3.238l-0.388-3.109c-2.203 2.332-4.665 3.628-7.515 3.628-1.813 0-3.369-0.518-4.534-1.555-1.295-1.166-1.943-2.721-1.943-4.664 0-2.461 1.037-4.405 3.109-5.83 2.074-1.425 5.7-2.591 10.624-3.368v-1.425c0-2.721-1.555-4.146-4.665-4.146-2.591 0-4.534 1.166-5.441 3.498v-0zM107.531 31.352v-31.352h3.109v20.211l9.198-11.53h3.757l-6.607 8.421 7.515 14.251h-3.758l-5.959-11.53-4.145 4.664v6.866h-3.109zM83.563 0h3.109v11.789h0.129c2.073-2.332 4.275-3.498 6.737-3.498 1.814 0 3.368 0.518 4.534 1.425 1.296 1.166 1.943 2.85 1.943 5.182v16.453h-3.109v-16.324c0-2.721-1.166-4.016-3.628-4.016-2.202 0-4.275 1.166-6.478 3.368v16.842h-3.109l-0.129-31.223zM61.538 27.466l2.462-1.814c1.684 2.332 3.757 3.498 6.478 3.498 1.555 0 2.85-0.389 3.628-1.166 0.777-0.648 1.166-1.555 1.166-2.591 0-1.555-1.166-2.721-3.498-3.498-2.073-0.777-4.275-1.425-6.348-2.202-2.332-1.166-3.368-2.85-3.239-5.182 0-1.943 0.777-3.498 2.073-4.534s3.109-1.555 5.312-1.555c1.425 0 2.98 0.389 4.405 1.166s2.591 1.684 3.368 2.85l-2.202 1.943c-1.684-2.073-3.628-3.109-5.83-3.109-2.721 0-4.016 1.166-4.016 3.368 0 1.296 1.166 2.332 3.368 3.109 4.016 1.295 6.089 2.073 6.348 2.202 2.202 1.295 3.368 3.109 3.368 5.441 0 2.073-0.777 3.757-2.462 4.923-1.425 1.036-3.239 1.684-5.441 1.684-3.887-0.259-6.866-1.684-8.939-4.534zM48.972 31.352v-22.672h3.109v4.534h0.13c0.907-1.684 1.943-2.85 2.85-3.498 1.166-0.777 2.721-1.296 4.405-1.296v3.109c-1.814 0-3.368 0.648-4.534 1.943-1.036 1.166-2.073 2.85-2.85 5.312v12.567h-3.109zM29.15 17.878h11.53c0-2.073-0.518-3.757-1.425-5.053s-2.332-1.943-3.887-1.943c-1.814 0-3.239 0.648-4.275 1.814-1.166 1.425-1.684 3.109-1.943 5.182zM42.105 25.263l2.462 1.296c-0.907 1.684-1.943 2.85-2.98 3.628-1.555 1.036-3.498 1.684-5.7 1.684-2.721 0-5.053-0.907-6.737-2.721-2.073-2.073-2.98-5.053-2.98-8.939 0-3.628 0.777-6.478 2.462-8.551s3.887-3.109 6.737-3.109c2.462 0 4.534 0.777 6.089 2.462 1.684 1.814 2.462 4.405 2.462 7.773v2.073h-14.769c0 2.462 0.648 4.534 1.943 6.089s2.85 2.332 4.793 2.332c2.721-0.259 4.794-1.555 6.219-4.016h0zM3.498 2.85v10.494h6.089c2.462 0 4.275-0.518 5.571-1.684 1.166-0.907 1.684-2.202 1.684-3.628 0-3.498-1.943-5.182-5.96-5.182h-7.385zM3.498 16.324v12.049h6.478c5.053 0 7.644-1.943 7.644-5.7 0-1.943-0.777-3.498-2.202-4.664s-3.498-1.684-5.959-1.684h-5.96zM0 31.352v-31.352h11.53c2.721 0 4.794 0.777 6.348 2.202s2.332 3.368 2.332 5.571c0 3.628-1.814 5.96-5.312 7.255v0.13c1.814 0.389 3.239 1.425 4.405 2.85s1.684 3.109 1.684 5.053c0 5.571-3.757 8.421-11.401 8.421h-9.587v-0.13z"></path>
</symbol>
<symbol id="asos" viewBox="0 0 111 32">
<path d="M97.203 32c6.324 0 13.777-2.354 13.193-9.99-0.644-6.778-7.698-8.495-11.223-9.2-4.152-0.875-7.323-1.676-7.323-4.632 0-2.085 1.867-3.602 5.455-3.342 3.278 0.238 4.658 2.242 5.037 4.175 0.054 0.317 0.202 0.548 0.562 0.551l5.895 0.050c0.448 0.003 0.588-0.23 0.532-0.549-1.155-7.065-7.058-9.064-12.49-9.064-5.424 0-11.959 1.524-12.423 8.271-0.016 0.261-0.022 0.518-0.022 0.77-0.863-1.795-2.108-3.443-3.712-4.903-2.962-2.67-6.654-4.101-10.68-4.136h-0.133c-1.924 0-3.806 0.354-5.596 1.057-1.819 0.72-3.493 1.763-4.941 3.079-1.519 1.381-2.718 2.931-3.576 4.615-1.277-6.809-7.081-8.753-12.432-8.753-4.979 0-10.896 1.288-12.187 6.726v-5.398c-0.001-0.288-0.234-0.521-0.522-0.521h-5.551c-0.288 0.001-0.521 0.234-0.521 0.522v1.456c0 0.245-0.164 0.33-0.363 0.188-1.975-1.433-4.896-2.97-8.412-2.97-1.976 0-3.862 0.347-5.608 1.032-1.747 0.687-3.407 1.732-4.931 3.107-1.735 1.578-3.056 3.377-3.922 5.347s-1.306 4.17-1.306 6.539c0 2.212 0.39 4.286 1.156 6.16s1.935 3.608 3.471 5.154c1.536 1.546 3.255 2.721 5.105 3.494 1.85 0.77 3.889 1.16 6.064 1.16 3.736 0 6.54-1.591 8.377-3.038 0.203-0.155 0.368-0.071 0.368 0.182v1.529c0 0.287 0.235 0.522 0.522 0.522h5.552c0.288-0.001 0.52-0.234 0.521-0.522v-5.15c2.617 6.154 9.286 6.48 12.551 6.48 5.457 0 11.751-1.757 12.999-7.146 0.6 0.892 1.285 1.724 2.045 2.485 2.975 2.995 6.875 4.605 11.281 4.653h0.181c2.092 0 4.111-0.401 6-1.196 1.907-0.806 3.637-1.981 5.090-3.457 1.087-1.083 2.015-2.315 2.757-3.658 1.979 7.934 9.6 8.319 13.163 8.319v0.001zM85.741 13.555c1.308 1.745 3.669 3.037 7.505 3.9 3.59 0.859 9.82 1.405 9.82 5.092 0 2.57-1.893 4.384-5.474 4.324-2.85 0-5.993-1.013-6.716-4.932-0.060-0.375-0.237-0.529-0.525-0.537l-5.281-0.070c0.557-1.643 0.841-3.423 0.841-5.305-0-0.827-0.057-1.653-0.171-2.472v0zM15.691 26.131c-4.598 0-8.81-3.619-8.81-10.102 0-5.087 3.158-10.016 8.84-10.016 2.462 0 8.703 0.843 8.703 10.016 0 9.197-6.516 10.102-8.734 10.102h0.001zM44.077 26.869c-2.851 0-5.992-1.013-6.716-4.932-0.061-0.374-0.238-0.529-0.525-0.537l-5.699-0.076v-10.074c0.749 2.952 3.23 4.996 8.594 6.204 3.591 0.859 9.82 1.405 9.82 5.092 0 2.57-1.892 4.384-5.474 4.324zM54.103 16.025c0 0.137 0.006 0.271 0.010 0.406-2.54-2.312-6.212-3.172-8.456-3.621-4.151-0.875-7.322-1.676-7.322-4.632 0-2.085 1.867-3.602 5.454-3.342 3.278 0.238 4.658 2.242 5.036 4.175 0.054 0.317 0.201 0.548 0.562 0.551l5.895 0.050c0.028 0 0.052-0.003 0.077-0.005-0.831 1.938-1.257 4.097-1.257 6.418h-0zM76.329 23.448c-1.657 1.777-3.784 2.679-6.322 2.679-2.539 0-4.666-0.902-6.322-2.679-1.581-1.693-2.49-4.399-2.49-7.423 0-2.951 0.919-5.621 2.517-7.325 1.673-1.777 3.79-2.683 6.292-2.69 2.507 0.007 4.624 0.914 6.295 2.69 1.6 1.705 2.517 4.374 2.517 7.325 0 3.024-0.907 5.73-2.489 7.423h0z"></path>
</symbol>
<symbol id="adidas" viewBox="0 0 229 32">
<path d="M225.555 4.288l0.509 0.003c0 0 0.428-0.013 0.428 0.418s-0.078 0.522-0.937 0.519v-0.94zM225.127 3.971v2.611h0.431l-0.006-1.038h0.412l0.528 1.041 0.418-0.003c0 0-0.016-0.111-0.523-1.109-0.052-0.117 0.542-0.046 0.535-0.724s-0.672-0.777-0.672-0.777l-1.123 0zM225.964 3.312c1.061 0 1.921 0.884 1.921 1.971s-0.86 1.968-1.921 1.968c-1.062 0-1.922-0.881-1.922-1.968s0.86-1.971 1.922-1.971zM225.97 2.878c-1.297 0-2.35 1.059-2.35 2.359s1.053 2.356 2.35 2.356 2.349-1.055 2.349-2.356c0-1.301-1.052-2.359-2.349-2.359v0zM213.348 23.855c-0.052 1.41 1.018 3.733 4.908 3.681 3.889-0.052 3.863-2.584 3.863-2.584 0.070-2.573-6.51-2.482-6.475-2.663-8.771-1.279-7.818-7.035-7.818-7.035-0.099-1.54 1.178-7.555 9.659-7.479 9.373 0.084 10.122 7.322 9.946 7.623h-5.887c0 0 0.285-3.186-3.797-3.133-3.387 0.045-3.76 1.24-3.76 1.24-1.513 3.238 5.414 3.075 7.362 3.779 0 0 6.879 1.116 7.009 6.363s-3.786 8.301-10.494 8.301c-4.614-0.212-10.191-1.709-10.651-8.092l6.134-0zM192.556 13.114c3.659 0 6.627 2.969 6.627 6.627s-2.969 6.627-6.627 6.627c-3.659 0-6.627-2.969-6.627-6.628s2.969-6.627 6.627-6.627v0zM192.5 7.721c-2.329 0.003-4.66 0.695-6.755 2.072-5.601 3.683-7.125 11.173-3.407 16.72 3.719 5.547 11.283 7.060 16.884 3.377l0.016 1.547h5.847v-23.491l-5.841-0.010v1.85c-2.091-1.383-4.416-2.069-6.745-2.066zM165.879 13.108c3.69 0 6.686 2.978 6.686 6.65s-2.996 6.654-6.686 6.654c-3.69 0-6.683-2.982-6.683-6.654s2.993-6.65 6.683-6.65v-0zM172.53 0c0 0-0.007 9.698 0 9.737-4.169-2.684-9.247-2.664-13.405 0.036-5.635 3.658-7.202 11.154-3.499 16.72s11.278 7.108 16.913 3.449v1.491l5.808 0.003-0.003-31.437h-5.814zM145.358 7.942l-0.006 23.498h5.955v-23.497l-5.949-0zM145.358 0.007v5.952h5.949v-5.952h-5.949zM130.044 13.124c3.711 0 6.722 2.972 6.722 6.637s-3.011 6.641-6.722 6.641-6.725-2.975-6.725-6.641c0-3.665 3.014-6.637 6.725-6.637zM136.788 0.007l0.004 9.819-0.011 0.010c-4.223-2.811-9.438-2.811-13.662 0-5.594 3.722-7.073 11.222-3.302 16.743 3.764 5.514 11.393 7.037 16.985 3.335l-0.011 1.524h5.849l0.002-31.43-5.854-0zM103.27 13.098c3.714 0 6.729 2.981 6.729 6.653s-3.014 6.654-6.729 6.654c-3.715 0-6.732-2.981-6.732-6.654s3.017-6.653 6.732-6.653v0zM103.153 7.721c-2.404-0.001-4.809 0.734-6.941 2.203-5.513 3.798-6.956 11.375-3.129 16.847 3.801 5.436 11.376 6.869 16.867 3.185l0.010 1.478 5.847 0.003-0.003-23.494h-5.847l0.003 1.782c-1.952-1.378-4.458-2.002-6.807-2.003v-0zM0.004 31.538v-5.115l83.013 0.002-0 5.012-83.013 0.102zM0.002 22.248l0.003-5.011 83.011-0.001 0 5.012-83.015-0zM0 7.943l83.014 0.005 0.005 5.118-83.018-0.009v-5.114z"></path>
</symbol>
<symbol id="twitter" viewBox="0 0 32 32">
<path d="M29.333 5.332c-1.040 0.617-3.127 1.459-4.353 1.701-0.036 0.009-0.065 0.021-0.1 0.031-1.084-1.069-2.569-1.732-4.213-1.732-3.313 0-6 2.687-6 6 0 0.175-0.015 0.496 0 0.667-4.471 0-7.873-2.341-10.313-5.333-0.265 0.667-0.381 1.72-0.381 2.709 0 1.868 1.46 3.703 3.733 4.84-0.419 0.108-0.88 0.185-1.36 0.185-0.775 0-1.595-0.204-2.345-0.823 0 0.023 0 0.044 0 0.068 0 2.611 2.771 4.388 5.235 4.883-0.5 0.295-1.508 0.324-2 0.324-0.347 0-1.573-0.159-1.901-0.22 0.685 2.14 3.157 3.343 5.513 3.385-1.843 1.445-3.121 1.981-6.895 1.981h-1.285c2.384 1.528 5.42 2.668 8.463 2.668 9.907 0 15.537-7.551 15.537-14.668 0-0.115-0.003-0.355-0.007-0.596 0-0.024 0.007-0.047 0.007-0.071 0-0.036-0.011-0.071-0.011-0.107-0.004-0.181-0.008-0.351-0.012-0.439 1.053-0.76 1.967-1.708 2.689-2.788-0.967 0.429-2.004 0.717-3.093 0.848 1.112-0.667 2.692-2.256 3.093-3.515z"></path>
</symbol>
<symbol id="pinterest" viewBox="0 0 32 32">
<path d="M16.094 4c-5.077 0-10.094 3.383-10.094 8.861 0 3.483 1.958 5.463 3.146 5.463 0.49 0 0.773-1.366 0.773-1.752 0-0.46-1.174-1.44-1.174-3.355 0-3.978 3.028-6.797 6.947-6.797 3.37 0 5.863 1.914 5.863 5.432 0 2.627-1.055 7.555-4.469 7.555-1.232 0-2.285-0.89-2.285-2.166 0-1.87 1.197-3.681 1.197-5.611 0-3.276-4.537-2.682-4.537 1.277 0 0.831 0.104 1.751 0.475 2.508-0.682 2.939-1.938 7.623-1.938 10.652 0 0.935 0.134 1.855 0.223 2.791 0.168 0.188 0.085 0.168 0.342 0.074 2.494-3.414 2.263-4.387 3.391-8.855 0.609 1.158 2.183 1.781 3.43 1.781 5.255 0 7.615-5.121 7.615-9.738 0-4.913-4.245-8.119-8.906-8.119z"></path>
</symbol>
<symbol id="instagram" viewBox="0 0 32 32">
<path d="M10.667 4c-3.676 0-6.667 2.991-6.667 6.667v10.667c0 3.676 2.991 6.667 6.667 6.667h10.667c3.676 0 6.667-2.991 6.667-6.667v-10.667c0-3.676-2.991-6.667-6.667-6.667h-10.667zM10.667 6.667h10.667c2.205 0 4 1.795 4 4v10.667c0 2.205-1.795 4-4 4h-10.667c-2.205 0-4-1.795-4-4v-10.667c0-2.205 1.795-4 4-4zM22.667 8c-0.736 0-1.333 0.597-1.333 1.333v0c0 0.736 0.597 1.333 1.333 1.333v0c0.736 0 1.333-0.597 1.333-1.333v0c0-0.736-0.597-1.333-1.333-1.333v0zM16 9.333c-3.676 0-6.667 2.991-6.667 6.667s2.991 6.667 6.667 6.667c3.676 0 6.667-2.991 6.667-6.667s-2.991-6.667-6.667-6.667zM16 12c2.205 0 4 1.795 4 4s-1.795 4-4 4c-2.205 0-4-1.795-4-4s1.795-4 4-4z"></path>
</symbol>
<symbol id="facebook" viewBox="0 0 32 32">
<path d="M23.367 12h-4.7v-2.667c0-1.376 0.112-2.243 2.084-2.243h2.491v-4.24c-1.212-0.125-2.431-0.187-3.651-0.184-3.617 0-6.257 2.209-6.257 6.265v3.068h-4v5.333l4-0.001v12.001h5.333v-12.004l4.088-0.001 0.612-5.328z"></path>
</symbol>
<symbol id="search" viewBox="0 0 32 32">
<path d="M12.667 22.667c-5.514 0-10-4.486-10-10s4.486-10 10-10c5.514 0 10 4.486 10 10s-4.486 10-10 10zM31.805 29.919l-9.296-9.296c1.763-2.177 2.824-4.944 2.824-7.957 0-6.984-5.682-12.667-12.667-12.667s-12.667 5.682-12.667 12.667c0 6.984 5.682 12.667 12.667 12.667 3.013 0 5.78-1.061 7.957-2.824l9.296 9.296c0.26 0.26 0.682 0.26 0.943 0l0.943-0.943c0.26-0.26 0.26-0.683 0-0.943v0z"></path>
</symbol>
<symbol id="cart" viewBox="0 0 24 32">
<path d="M20.906 29.35c-0.384 0.418-0.908 0.65-1.478 0.65h-15.428c-0.568 0-1.094-0.232-1.476-0.652-0.384-0.42-0.566-0.962-0.514-1.53l1.618-17.818h2.086v3c0 0.552 0.448 1 1 1s1-0.448 1-1v-3h8v3c0 0.552 0.448 1 1 1s1-0.448 1-1v-3h2.086l1.62 17.82c0.052 0.566-0.13 1.11-0.514 1.53v0zM7.714 6c0-2.206 1.794-4 4-4 1.074 0 2.080 0.414 2.834 1.166s1.166 1.76 1.166 2.834v2h-8v-2zM23.414 27.638l-1.702-18.728c-0.048-0.516-0.48-0.91-0.998-0.91h-3v-2c0-1.608-0.622-3.118-1.752-4.248s-2.64-1.752-4.248-1.752c-3.308 0-6 2.692-6 6v2h-3c-0.518 0-0.95 0.394-0.996 0.91l-1.702 18.728c-0.102 1.116 0.274 2.232 1.030 3.060s1.832 1.302 2.954 1.302h15.43c1.122 0 2.198-0.474 2.954-1.302s1.13-1.944 1.030-3.060v0z"></path>
</symbol>
<symbol id="profile" viewBox="0 0 26 32">
<path d="M8.573 4.205c1.092-1.092 2.373-1.623 3.917-1.623s2.825 0.531 3.917 1.623c1.092 1.092 1.623 2.374 1.623 3.917s-0.531 2.825-1.623 3.917c-1.092 1.092-2.374 1.623-3.917 1.623s-2.825-0.531-3.917-1.623c-1.092-1.092-1.624-2.374-1.624-3.917s0.531-2.825 1.624-3.917zM12.49 15.444c2.012 0 3.754-0.722 5.177-2.145s2.145-3.165 2.145-5.177c0-2.011-0.722-3.753-2.145-5.177s-3.165-2.145-5.177-2.145c-2.012 0-3.754 0.722-5.177 2.145s-2.145 3.165-2.145 5.177c0 2.012 0.722 3.754 2.145 5.177s3.166 2.145 5.177 2.145h-0z"></path>
<path d="M22.635 28.5c-0.649 0.618-1.511 0.918-2.635 0.918h-14.638c-1.124 0-1.986-0.3-2.635-0.918-0.637-0.606-0.946-1.433-0.946-2.528 0-0.57 0.019-1.132 0.056-1.672 0.037-0.53 0.112-1.112 0.223-1.73 0.11-0.611 0.249-1.184 0.415-1.703 0.159-0.498 0.377-0.99 0.646-1.465 0.257-0.452 0.553-0.84 0.88-1.153 0.305-0.292 0.69-0.532 1.144-0.711 0.42-0.166 0.891-0.257 1.403-0.271 0.062 0.033 0.173 0.096 0.353 0.214 0.366 0.239 0.788 0.511 1.255 0.809 0.526 0.335 1.204 0.638 2.013 0.9 0.828 0.268 1.672 0.404 2.51 0.404s1.682-0.136 2.51-0.403c0.81-0.262 1.488-0.564 2.015-0.9 0.477-0.305 0.888-0.57 1.254-0.808 0.18-0.117 0.291-0.181 0.353-0.214 0.512 0.014 0.984 0.105 1.403 0.271 0.453 0.18 0.838 0.419 1.144 0.711 0.327 0.312 0.623 0.7 0.88 1.153 0.27 0.474 0.487 0.967 0.646 1.464 0.166 0.52 0.306 1.092 0.416 1.703 0.111 0.619 0.186 1.202 0.223 1.73v0c0.038 0.538 0.057 1.1 0.057 1.671-0 1.095-0.31 1.922-0.946 2.528v0zM25.301 24.176c-0.041-0.592-0.124-1.238-0.246-1.921-0.123-0.687-0.282-1.337-0.472-1.931-0.197-0.614-0.464-1.22-0.794-1.801-0.343-0.603-0.745-1.128-1.197-1.56-0.472-0.452-1.051-0.816-1.72-1.081-0.667-0.264-1.405-0.397-2.196-0.397-0.31 0-0.61 0.127-1.19 0.505-0.357 0.233-0.774 0.502-1.24 0.799-0.398 0.254-0.938 0.492-1.604 0.707-0.65 0.21-1.31 0.317-1.962 0.317s-1.311-0.107-1.962-0.317c-0.666-0.215-1.205-0.453-1.603-0.706-0.461-0.295-0.879-0.564-1.241-0.8-0.579-0.377-0.879-0.505-1.19-0.505-0.79 0-1.529 0.134-2.195 0.398-0.668 0.265-1.247 0.628-1.72 1.081-0.452 0.432-0.854 0.957-1.197 1.56-0.33 0.581-0.597 1.187-0.794 1.801-0.19 0.594-0.349 1.244-0.472 1.931-0.122 0.681-0.205 1.328-0.246 1.922-0.040 0.58-0.061 1.185-0.061 1.795 0 1.587 0.504 2.872 1.499 3.819 0.982 0.935 2.282 1.409 3.863 1.409h14.638c1.581 0 2.88-0.474 3.863-1.409 0.995-0.947 1.5-2.232 1.5-3.819-0-0.612-0.021-1.217-0.061-1.796v0z"></path>
</symbol>
<symbol id="wish" viewBox="0 0 34 32">
<path d="M9.457 2.924c-2.054 0-3.941 0.82-5.314 2.308-1.393 1.511-2.16 3.6-2.16 5.882 0 2.408 0.895 4.561 2.901 6.982 1.939 2.34 4.824 4.798 8.164 7.645l0.006 0.005c1.168 0.995 2.491 2.123 3.869 3.328 1.386-1.207 2.712-2.337 3.882-3.333 3.34-2.846 6.224-5.304 8.163-7.644 2.006-2.421 2.901-4.575 2.901-6.982 0-2.282-0.767-4.371-2.161-5.882-1.372-1.489-3.259-2.308-5.313-2.308-1.505 0-2.886 0.478-4.106 1.422-1.087 0.841-1.844 1.904-2.288 2.648-0.228 0.383-0.63 0.611-1.075 0.611s-0.847-0.228-1.075-0.611c-0.444-0.744-1.201-1.807-2.288-2.648-1.22-0.943-2.601-1.422-4.106-1.422v0zM16.926 31.059c-0.482 0-0.947-0.174-1.309-0.492-1.368-1.196-2.686-2.32-3.849-3.311l-0.006-0.005c-3.41-2.906-6.356-5.416-8.405-7.889-2.291-2.764-3.358-5.385-3.358-8.248 0-2.782 0.954-5.348 2.686-7.226 1.752-1.901 4.157-2.947 6.771-2.947 1.954 0 3.744 0.618 5.319 1.836 0.795 0.615 1.516 1.368 2.15 2.245 0.635-0.878 1.355-1.63 2.151-2.245 1.575-1.218 3.365-1.836 5.319-1.836 2.614 0 5.019 1.047 6.771 2.947 1.732 1.878 2.685 4.445 2.685 7.226 0 2.863-1.067 5.484-3.357 8.247-2.049 2.473-4.994 4.982-8.404 7.888-1.165 0.993-2.486 2.118-3.857 3.317-0.362 0.317-0.827 0.491-1.308 0.491v0z"></path>
</symbol>
<symbol id="arrow-right" viewBox="0 0 45 32">
<path fill="none"  stroke-width="4" stroke-miterlimit="4" stroke-linecap="butt" stroke-linejoin="miter" style="" d="M0.003 16h40"></path>
<path fill="none"  stroke-width="4" stroke-miterlimit="4" stroke-linecap="butt" stroke-linejoin="miter" style="" d="M26.667 2.661l13.333 13.335-13.333 13.337"></path>
</symbol>
<symbol id="arrow-cross" viewBox="0 0 30 32">
<path fill="none" stroke="#fff" stroke-width="3" stroke-miterlimit="4" stroke-linecap="butt" stroke-linejoin="miter" style="stroke: var(--color1, #fff)" d="M5.658 24.483l16.971-16.971"></path>
<path fill="none" stroke="#fff" stroke-width="3" stroke-miterlimit="4" stroke-linecap="butt" stroke-linejoin="miter" style="stroke: var(--color1, #fff)" d="M11.315 7.513l11.313 0 0 11.313"></path>
</symbol>
<symbol id="arrow-down" viewBox="0 0 53 32">
<path stroke-width="5.3333" stroke-miterlimit="4" stroke-linecap="round" stroke-linejoin="round" d="M5.334 5.333l21.333 21.333 21.333-21.333"></path>
</symbol>
<symbol id="apple" viewBox="0 0 28 32">
<path fill="#fff" style="fill: var(--color1, #fff)" d="M19.67 0c-1.706 0.118-3.701 1.209-4.863 2.63-1.060 1.289-1.932 3.204-1.592 5.065 1.864 0.058 3.791-1.059 4.907-2.505 1.044-1.345 1.834-3.248 1.548-5.191v0z"></path>
<path fill="#fff" style="fill: var(--color1, #fff)" d="M26.407 10.733c-1.638-2.054-3.94-3.246-6.114-3.246-2.87 0-4.084 1.374-6.078 1.374-2.056 0-3.618-1.37-6.1-1.37-2.438 0-5.034 1.49-6.68 4.039-2.314 3.588-1.918 10.335 1.832 16.082 1.342 2.056 3.134 4.369 5.478 4.389 2.086 0.020 2.674-1.338 5.5-1.352 2.826-0.016 3.362 1.37 5.444 1.348 2.346-0.018 4.236-2.58 5.578-4.637 0.962-1.474 1.32-2.216 2.066-3.881-5.426-2.066-6.296-9.783-0.926-12.746z"></path>
</symbol>
<symbol id="google-play" viewBox="0 0 31 32">
<path fill="#fff" style="fill: var(--color1, #fff)" d="M5.98 0.511c-1.252-0.692-2.722-0.676-3.966 0.010l14.579 13.456 4.898-4.9-15.512-8.566z"></path>
<path fill="#fff" style="fill: var(--color1, #fff)" d="M0.56 1.904c-0.356 0.582-0.56 1.248-0.56 1.953v24.282c0 0.684 0.186 1.335 0.522 1.905l14.659-14.656-14.621-13.485z"></path>
<path fill="#fff" style="fill: var(--color1, #fff)" d="M27.993 12.655l-4.673-2.577-5.252 5.246 6.436 5.931 3.491-1.925c1.256-0.696 2.009-1.943 2.009-3.339-0.002-1.395-0.752-2.643-2.011-3.337v0z"></path>
<path fill="#fff" style="fill: var(--color1, #fff)" d="M16.65 16.743l-14.696 14.7c0.638 0.364 1.337 0.556 2.041 0.556 0.68 0 1.363-0.172 1.989-0.518l16.667-9.201-6.001-5.537z"></path>
</symbol>
<symbol id="besart" viewBox="0 0 32 32">
<path d="M22.121 15.145c1.172-1.392 1.879-3.188 1.879-5.145 0-4.411-3.589-8-8-8h-10v28h12c4.411 0 8-3.589 8-8 0-2.905-1.556-5.453-3.879-6.855zM12 6h3.172c1.749 0 3.172 1.794 3.172 4s-1.423 4-3.172 4h-3.172v-8zM16.969 26h-4.969v-8h4.969c1.827 0 3.313 1.794 3.313 4s-1.486 4-3.313 4z"></path>
</symbol>
</defs>
</svg>
